<?xml version="1.0" encoding="UTF-8"?>
<svg xmlns="http://www.w3.org/2000/svg" version="1.1" viewBox="0 0 5000 5000">
  <defs>
    <style>
      .cls-1 {
        fill: #231f20;
      }

      .cls-2 {
        fill: #fff;
      }
    </style>
  </defs>
  <!-- Generator: Adobe Illustrator 28.6.0, SVG Export Plug-In . SVG Version: 1.2.0 Build 709)  -->
  <g>
    <g id="Layer_3">
      <path class="cls-1" d="M3941.68,4294.02c-36.77-70.47-208.34-217.53-297.19-386.04-88.85-168.51-58.21-315.57-107.23-389.11-49.02-73.53-94.98-116.43-98.04-168.51-3.06-52.09,58.21-180.77-27.57-410.55-85.79-229.79-119.49-338.04-64.34-487.66,55.15-149.62,42.89-373.11-64.34-601.45-107.23-228.34-272.68-357.02-381.45-464.26-108.77-107.23-102.64-232.85-84.26-324.77,18.38-91.91,50.04-128.68-71.49-254.3-121.53-125.62-388.09-64.34-504.51-36.77-116.43,27.57-208.34,49.84-291.06-39.42-82.72-89.26,82.72-98.45,137.87-77.01,55.15,21.45,174.64,55.15,217.53,55.15s113.9-27.57,113.9-27.57l-104.7-58.21,220.6,30.64s62.81,1.53-65.87-47.49c-128.68-49.02-166.98-59.74-327.83-62.81s-269.62,38.3-297.19,157.79c-27.57,119.49,245.11,153.19,448.85,94.98,203.74-58.21,436.42-10.3,482.55,116.43,46.13,126.73-88.85,171.57-219.06,144-130.21-27.57-405.96-19.91-625.02,130.21-219.06,150.13-261.96,222.13-274.21,249.7-12.26,27.57-372.26,294.13-378.38,355.4l-31.33-13.23-11.57,14.76-70.47-21.45,45.96,78.21-7.05,20.5,34.63,42.23s-94.98,220.56-72,561.43c22.98,340.87,104.17,419,229.79,635,125.62,216,144,422.81,113.36,588.26-30.64,165.45-88.85,281.87-94.98,333.96-6.13,52.09,56.68,61.28,70.47,56.68,13.79-4.6,10.72-59.74,26.04-68.94,15.32-9.19,16.85,7.66,21.45,22.98,4.6,15.32,9.19,52.08,22.98,50.55,13.79-1.53,208.34-29.11,203.74-121.02-4.6-91.91-32.17-102.64-27.57-199.15,4.6-96.51-19.91-166.98-38.3-234.38-18.38-67.4,3.06-274.21,22.98-343.15,19.91-68.94-156.26-203.74-231.32-364.6-75.06-160.85-16.85-420.15,4.6-462.07,21.45-41.93,26.04-36.84,18.38,18.06s-62.81,307.67,4.6,408.78c67.4,101.11,176.17,231.32,226.72,295.66,50.55,64.34,16.85,156.26,42.89,248.17,26.04,91.92,158.28,196.09,206.29,272.68,48.01,76.6,43.41,151.66,46.48,197.62,3.06,45.96,44.43,151.66,15.32,217.53-29.11,65.87-62.81,104.17-9.19,157.79,53.62,53.62,165.45,130.21,179.23,127.15,13.79-3.06-13.79-73.53,7.66-87.32,21.45-13.79,31.81-13.79,46.54,32.17,14.73,45.96,19.33,53.62,34.65,41.36,15.32-12.26,130.21-98.04,140.94-185.36,10.72-87.32-65.06-104.17-86.91-183.83-21.85-79.66,40.96-62.81-43.3-131.74-84.26-68.94-107.08-255.83-123.24-373.79-16.16-117.96,2.22-145.53,58.9-151.66,56.68-6.13,140.28,101.11,149.8,139.4,9.52,38.3-2.73,99.57,35.56,148.6,38.3,49.02,62.81,82.72,67.4,121.02,4.6,38.3-22.98,145.53,9.19,165.45,32.17,19.91,245.11,12.26,263.49-7.66,18.38-19.91-18.38-67.4,0-81.19,18.38-13.79,32.17,64.34,72,41.36,39.83-22.98,62.81-35.23,12.26-73.53s-173.11-171.57-196.09-266.55c-22.98-94.98-58.21-191.3,90.38-264.16,148.6-72.86,310.98-278.14,338.55-408.35,27.57-130.21,30.64-286.47,47.49-300.26,7.34-6,12.45-7.08,16.67-6.68,21.62,2.08,17.09,50.68,18.56,73.58-3.06,123.05-30.64,395.73-214.47,567.31,0,0,389.11,496.34,481.02,677.11,91.91,180.77,49.02,226.72,107.23,370.72,58.21,144-9.19,150.13,64.34,205.28,73.53,55.15,238.98,30.64,238.98,30.64v-79.66l39.83,52.08s79.66-12.26,42.89-82.72Z"/>
    </g>
    <g id="Layer_2">
      <path class="cls-2" d="M1574.11,2084.23l45.96-10.72s-4.98-.94-13.72-2.84c-16.56,3.91-33.62,9.19-50.12,14.42,11.65.09,17.89-.85,17.89-.85Z"/>
      <path class="cls-2" d="M3006.19,1707.13c-51.06-101.11-194.04-169.53-208.34-168.51-14.3,1.02-22.47,3.06-17.36,18.38,5.11,15.32,32.68,38.81,64.34,85.79,31.66,46.98,53.11,159.32-49.02,186.89-102.13,27.57-188.94,28.6-188.94,28.6,0,0,7.15-42.89-53.11-60.26-60.26-17.36-100.08-4.09-150.13,10.21-50.04,14.3-176.68,85.79-288,75.57-111.32-10.21-146.04-58.21-229.79-40.85-83.74,17.36-104.17,53.62-104.17,53.62,0,0-173.87,13.79-327.06-37.53-125.76-42.13-287.66-150.85-341.6-188.44-7.51-5.23-17.66.98-16.39,10.04,6.92,49.49,37.65,170.35,174.16,280.26,137.63,110.82,244.66,123.85,285.43,124.17,16.51-5.23,33.56-10.5,50.12-14.42-48.3-10.51-211.77-50.49-289.6-125.07-91.91-88.09-120.26-153.96-120.26-153.96,0,0,106.47,95.74,271.91,124.85,165.45,29.11,294.89,21.45,294.89,21.45,0,0-19.4,30.64-16.34,68.43l3.06,37.79,4.09,18.38s-52.71-.41-108.26,2.04c-12.43.55-25.8,2.86-39.51,6.1,8.75,1.9,13.72,2.84,13.72,2.84l-45.96,10.72s-6.24.94-17.89.85c-30.85,9.76-59.76,19.32-79.9,19.32-39.83,0-67.4,6.13-67.4,6.13,0,0-12.26,12.26,33.7,42.89,45.96,30.64,85.79,62.3,157.28,92.94,71.49,30.64,159.32,21.45,159.32,21.45,0,0-27.57-3.06-93.96-24.51-66.38-21.45-159.32-84.77-180.77-92.94-21.45-8.17-18.38-14.3,6.13-18.38,24.51-4.09,60.26-24.51,72.51-27.57,12.26-3.06,153.19-11.23,175.66-9.19,22.47,2.04,29.62,9.19,37.79,30.64,8.17,21.45,44.94,52.08,48,66.38,3.06,14.3,1.02,23.49-27.57,54.13-28.6,30.64-56.17,61.28-44.94,99.06,11.23,37.79,43.91,62.3,43.91,73.53s-3.06,110.3,2.04,123.57c5.11,13.28,113.36,15.32,110.3,0-3.06-15.32-122.55-169.53-126.64-211.4-4.09-41.87,50.04-59.23,68.43-82.72,18.38-23.49,31.66-61.28,0-93.96-31.66-32.68-71.49-88.85-67.4-149.11,4.09-60.26,33.7-93.96,67.4-102.13,33.7-8.17,70.47,6.13,105.19,26.55,34.72,20.43,132.77,39.83,280.85-5.11,148.09-44.94,179.74-88.85,244.09-93.96,64.34-5.11,81.7,15.32,81.7,15.32,0,0-85.79,34.72-100.08,110.3-14.3,75.57,6.13,132.77,51.06,160.34,44.94,27.57,75.57,17.36,84.77,8.17,9.19-9.19,9.19-35.74,9.19-35.74,0,0,150.13-39.83,235.91-63.32,85.79-23.49,144-26.55,183.83-89.87,39.83-63.32,30.64-127.66-20.43-228.77ZM2927.55,1955.3c-50.04,31.66-352.34,106.21-388.09,109.28-35.74,3.06-29.62-35.74-25.53-84.77,4.09-49.02,51.06-92.94,51.06-92.94,0,0,312.51-7.15,327.83-89.87,15.32-82.72-26.55-160.34-26.55-160.34,0,0,45.96,33.7,90.89,129.7,44.94,96,20.43,157.28-29.62,188.94Z"/>
      <path class="cls-2" d="M1574.11,2084.23l45.96-10.72s-4.98-.94-13.72-2.84c-16.56,3.91-33.62,9.19-50.12,14.42,11.65.09,17.89-.85,17.89-.85Z"/>
      <path class="cls-2" d="M2885.68,2003.3s43.08-2.04,95.07,24.51c51.99,26.55,70.64,51.06,70.64,51.06,0,0-47.24,73.53-149.37,99.06-102.13,25.53-196.09,0-196.09,0,0,0,1.02,44.94,139.91,42.89,138.89-2.04,251.23-132.77,251.23-132.77,0,0-81.68-113.28-179.74-103.15l-31.66,18.38Z"/>
      <path class="cls-2" d="M2631.89,2160.06s10.72,163.91,0,251.23-41.36,104.17-42.89,148.6,32.17-.3,55.15-59.89c22.98-59.6,79.66-88.7,82.72-176.02,0,0-4.15-133.85-94.98-163.91Z"/>
      <path class="cls-2" d="M2538.45,2330.11c-28.6-16.34-110.3-24.51-153.19,0-42.89,24.51-53.11,114.38-96,128.68s-63.32,30.64-79.66,73.53c0,0-51.06,277.79-32.68,426.89,18.38,149.11,49.02,85.79,42.89-24.51-6.13-110.3,53.11-402.38,73.53-422.81,20.43-20.43,187.92,8.17,226.72-22.47,38.81-30.64,46.98-142.98,18.38-159.32ZM2412.2,2445.2c-72.28,35.21-68.57-74.13-24.09-87.11,54.11-15.78,96.37,51.89,24.09,87.11Z"/>
      <path class="cls-2" d="M2403.33,2387.3s-24.96-3.72-25.73,16.65c-.77,20.37,15.32,26.5,30.64,19.61,15.32-6.89,16.22-32.68-4.91-36.26Z"/>
      <path class="cls-2" d="M2726.87,2710.02c66.07-56.63,87.32-93.96,83.23-175.66-4.09-81.7,0-151.15,53.11-96,53.11,55.15,85.79,32.68,134.81,22.47,49.02-10.21,18.57,112.34-17.27,165.45s-70.56,110.3-117.54,140.94c-46.98,30.64-189.96,53.11-253.28,49.02-63.32-4.09-40.85-34.72,0-49.02,40.85-14.3,84.2-29.13,116.94-57.19Z"/>
      <path class="cls-2" d="M2485.34,2887.72c-7.26,60.98,16.34,189.96-34.72,214.47-51.06,24.51-48.21,25.53-86.4,0-38.19-25.53-83.13-5.11-87.21,8.17s-3.06,18.38,51.06,17.36c54.13-1.02,65.15,88.85,36.15,85.79-29-3.06-24.92,19.4-15.73,20.43,9.19,1.02,134.81,26.55,163.4-53.11,28.6-79.66-1.02-237.96,11.23-281.87,12.26-43.91,19.4-56.17,9.19-74.55-10.21-18.38-41.87,20.43-46.98,63.32Z"/>
      <path class="cls-2" d="M2282.11,3206.87c32.5-12.26,55.15,4.6,68.43-11.74,13.28-16.34-33.7-42.89-67.92-31.66-34.21,11.23-60.77,22.47-74.04,34.72-13.28,12.26-15.75,25.72,0,30.64,8.17,2.55,42.38-10.21,73.53-21.96Z"/>
      <path class="cls-2" d="M1884.83,2738.62c-10.02-59.1-20.43-88.85,6.13-90.89,26.55-2.04,38.81,32.68,46.98,113.36,8.17,80.68,19.4,233.65-25.53,285.84-44.94,52.2-25.53,152.28,57.19,172.71,82.72,20.43,176.68,78.64,163.4,96s-33.7,11.23-85.79-24.51c-52.09-35.74-145.02-39.83-184.85-87.83-39.83-48-3.06-163.35,21.45-216.99,24.51-53.65,6.13-217.57,1.02-247.69Z"/>
      <path class="cls-2" d="M1960.91,3194.97c24.04,17.9,48.26,36.67,55.91,12.93,7.66-23.74-42.13-65.11-72-69.7-29.87-4.6-43.66,9.17-35.23,22.59,8.43,13.41,35.31,22.27,51.32,34.19Z"/>
      <path class="cls-2" d="M2430.26,3790.26c1.73,13.01,4.87,28.49,10.14,47.25,1.97,7.02,4.42,13.59,7.29,19.74-1.24-18.87-2.03-37.95-4.23-50.38-1.25-7.1-5.93-11.81-13.21-16.61Z"/>
      <path class="cls-2" d="M3796.15,3995.3c-148.6-168.51-134.81-249.7-153.19-349.28-18.38-99.57-56.68-205.28-82.72-234.38-26.04-29.11-36.77-58.21-36.77-58.21,26.04-177.7,26.04-242.04-84.26-563.74-110.3-321.7,62.81-258.89,10.72-614.3-52.09-355.4-193.02-566.81-418.21-755.23-225.19-188.43-133.28-280.34-116.43-458.04,16.85-177.7-306.38-289.53-306.38-289.53,13.79-87.32-70.47-110.3-182.3-145.53-111.83-35.23-438.13-32.17-520.85,0-82.72,32.17-110.3,96.51-116.43,168.51-6.13,72,68.94,176.17,216,189.96,147.06,13.79,202.21-27.57,430.47-45.96,228.26-18.38,295.66,68.94,278.81,116.43-16.85,47.49-64.34,33.7-243.57,21.45-179.23-12.26-323.23,27.57-528.51,117.96-205.28,90.38-312.51,286.47-413.62,361.53-101.11,75.06-318.64,306.38-318.64,306.38l68.94,29.11c6.13-61.28,366.13-327.83,378.38-355.4,12.26-27.57,55.15-99.57,274.21-249.7,219.06-150.13,494.81-157.79,625.02-130.21,130.21,27.57,265.19-17.27,219.06-144-46.13-126.73-278.81-174.64-482.55-116.43-203.74,58.21-476.43,24.51-448.85-94.98,27.57-119.49,136.34-160.85,297.19-157.79s199.15,13.79,327.83,62.81c128.68,49.02,65.87,47.49,65.87,47.49l-220.6-30.64,104.7,58.21s-71,27.57-113.9,27.57-162.38-33.7-217.53-55.15c-55.15-21.45-220.6-12.26-137.87,77.01,82.72,89.26,174.64,66.99,291.06,39.42,116.43-27.57,382.98-88.85,504.51,36.77,121.53,125.62,89.87,162.38,71.49,254.3-18.38,91.91-24.51,217.53,84.26,324.77,108.77,107.23,274.21,235.91,381.45,464.26,107.23,228.34,119.49,451.83,64.34,601.45-55.15,149.62-21.45,257.87,64.34,487.66,85.79,229.79,24.51,358.47,27.57,410.55,3.06,52.08,49.02,94.98,98.04,168.51,49.02,73.53,18.38,220.6,107.23,389.11,88.85,168.51,260.43,315.57,297.19,386.04,36.77,70.47-42.89,82.72-42.89,82.72l-39.83-52.08v79.66s-165.45,24.51-238.98-30.64c-73.53-55.15-6.13-61.28-64.34-205.28-58.21-144-15.32-189.96-107.23-370.72-91.92-180.77-481.02-677.11-481.02-677.11,183.83-171.57,211.4-444.26,214.47-567.31-1.47-22.9,3.06-71.5-18.56-73.58-4.22-.41-9.34.67-16.67,6.68-16.85,13.79-19.91,170.04-47.49,300.26-27.57,130.21-189.96,335.49-338.55,408.35-148.6,72.86-113.36,169.18-90.38,264.16,22.98,94.98,145.53,228.26,196.09,266.55s27.57,50.55-12.26,73.53c-39.83,22.98-53.62-55.15-72-41.36-18.38,13.79,18.38,61.28,0,81.19-18.38,19.92-231.32,27.57-263.49,7.66-32.17-19.91-4.6-127.15-9.19-165.45-4.6-38.3-29.11-72-67.4-121.02-38.3-49.02-26.04-110.3-35.56-148.6-9.52-38.3-93.12-145.53-149.8-139.4-56.68,6.13-75.06,33.7-58.9,151.66,16.16,117.96,38.99,304.85,123.24,373.79,84.26,68.94,21.45,52.08,43.3,131.74,21.85,79.66,97.64,96.51,86.91,183.83-10.72,87.32-125.62,173.11-140.94,185.36-15.32,12.26-19.91,4.6-34.65-41.36-14.73-45.96-25.1-45.96-46.54-32.17-21.45,13.79,6.13,84.26-7.66,87.32-13.79,3.06-125.62-73.53-179.23-127.15-53.62-53.62-19.91-91.92,9.19-157.79,29.11-65.87-12.26-171.57-15.32-217.53-3.06-45.96,1.53-121.02-46.48-197.62-48.01-76.6-180.25-180.77-206.29-272.68-26.04-91.91,7.66-183.83-42.89-248.17-50.55-64.34-159.32-194.55-226.72-295.66-67.4-101.11-12.26-353.87-4.6-408.78s3.06-59.99-18.38-18.06c-21.45,41.93-79.66,301.22-4.6,462.07,75.06,160.85,251.23,295.66,231.32,364.6-19.91,68.94-41.36,275.74-22.98,343.15,18.38,67.4,42.89,137.87,38.3,234.38-4.6,96.51,22.98,107.23,27.57,199.15,4.6,91.92-189.96,119.49-203.74,121.02-13.79,1.53-18.38-35.23-22.98-50.55-4.6-15.32-6.13-32.17-21.45-22.98-15.32,9.19-12.26,64.34-26.04,68.94-13.79,4.6-76.6-4.6-70.47-56.68,6.13-52.08,64.34-168.51,94.98-333.96,30.64-165.45,12.26-372.26-113.36-588.26-125.62-216-206.81-294.13-229.79-635-22.98-340.87,72-561.43,72-561.43l-62.81-76.6c-53.62,133.28-82.72,537.7-65.87,741.45s53.62,286.47,171.57,468.65c117.96,182.18,177.7,396.88,166.98,554.67-10.72,157.79-84.26,347.74-93.45,444.26-9.19,96.51,93.45,122.55,261.96,104.17,168.51-18.38,217.53-127.15,217.53-186.89s-44.43-124.09-36.77-203.74c7.66-79.66-13.79-130.21-18.38-171.57-4.6-41.36-1.53-136.34-1.53-136.34,0,0,121.02,125.62,166.98,234.38,45.96,108.77,61.28,249.7,29.11,363.06-32.17,113.36-10.72,154.72,78.13,235.91,88.85,81.19,223.66,157.79,364.6,24.51,140.94-133.28,114.89-266.55,94.98-297.19-19.92-30.64-47.49-81.19-56.68-102.64-4.8-11.2-6.68-31.61-8.03-52.26-2.87-6.15-5.32-12.72-7.29-19.74-5.27-18.76-8.42-34.24-10.14-47.25-19.42-12.81-57.4-26.28-98.62-87.56-56.68-84.26-56.39-341.62-56.39-341.62,135.1,122.55,41.07,174.64,120.73,275.74,68.7,87.2,23.47,71.85,34.28,153.43,7.28,4.8,11.95,9.51,13.21,16.61,2.19,12.44,2.99,31.51,4.23,50.38,52.86,113.25,251.63,82.22,364.96,41.53,119.49-42.89,246.64-104.17,98.04-237.45-148.6-133.28-191.49-226.72-179.23-317.11,12.26-90.38,165.45-165.45,199.15-176.17,33.7-10.72,416.68,595.92,468.77,678.64,52.08,82.72,102.64,404.43,114.89,477.96,12.26,73.53,67.4,111.83,96.51,119.49,29.11,7.66,278.81,4.6,344.68-16.85,65.87-21.45,70.47-101.11,56.68-147.06-13.79-45.96-67.4-116.43-216-284.94Z"/>
    </g>
  </g>
</svg>